# xmcd CD database file
#
# Track frame offsets:
#	150
#	4432
#	25206
#	48760
#	72768
#	92757
#	110830
#	128605
#	165567
#	195924
#
# Disc length: 2815 seconds
#
# Revision: 0
# Processed by: cddbd v1.5.1PL0 Copyright (c) Steve Scherf et al.
# Submitted via: CDex 1.51
#
DISCID=790afd0a
DTITLE=UNICORN - The 13th Sign
DYEAR=2005
DGENRE=Melodic Power Metal
TTITLE0=Breath Of Life
TTITLE1=Avylonia (That's How The Story Began)
TTITLE2=One In A Million
TTITLE3=Fight For The Wings
TTITLE4=Waiting For...
TTITLE5=The Book Of Drake
TTITLE6=Dance Of Passion
TTITLE7=Elysian Fields
TTITLE8=Vampyrial
TTITLE9=Eagle Fly Free (Bonus Track)
EXTD=YEAR: 2005
EXTT0=
EXTT1=
EXTT2=
EXTT3=
EXTT4=
EXTT5=
EXTT6=
EXTT7=
EXTT8=
EXTT9=
PLAYORDER=
